<svg version="1.1" xmlns="http://www.w3.org/2000/svg" xmlns:xlink="http://www.w3.org/1999/xlink" width="5269" height="114"><defs></defs><g><g transform="translate(-10,-10) scale(1,1)"><rect fill="#C0C0C0" stroke="none" x="27" y="27" width="32.8" height="15" opacity="0.2"></rect></g><g transform="translate(-10,-10) scale(1,1)"><rect fill="#C0C0C0" stroke="none" x="27" y="41" width="82" height="25" opacity="0.2"></rect></g><g transform="translate(-10,-10) scale(1,1)"><rect fill="#ffffff" stroke="none" x="20" y="35" width="82" height="24"></rect></g><g transform="translate(-10,-10) scale(1,1)"><path fill="none" stroke="#000000" d="M 20 35 L 102 35 L 102 59 L 20 59 L 20 35 Z Z" stroke-miterlimit="10"></path></g><g transform="translate(-10,-10) scale(1,1)"><rect fill="#ffffff" stroke="none" x="20" y="20" width="32.8" height="15"></rect></g><g transform="translate(-10,-10) scale(1,1)"><path fill="none" stroke="#000000" d="M 20 20 L 52.8 20 L 52.8 35 L 20 35 L 20 20 Z Z" stroke-miterlimit="10"></path></g><g transform="translate(-10,-10) scale(1,1)"><rect fill="#ffffff" stroke="none" x="20" y="34" width="82" height="25"></rect></g><g transform="translate(-10,-10) scale(1,1)"><path fill="none" stroke="#000000" d="M 20 34 L 102 34 L 102 59 L 20 59 L 20 34 Z Z" stroke-miterlimit="10"></path></g><g transform="translate(-10,-10) scale(1,1)"><g><path fill="none" stroke="none"></path><text fill="#000000" stroke="none" font-family="Arial" font-size="13px" font-style="normal" font-weight="bold" text-decoration="none" x="27" y="54.5">smartLights</text></g></g><g transform="translate(-10,-10) scale(1,1)"><rect fill="#C0C0C0" stroke="none" x="140" y="28" width="94" height="37" opacity="0.2"></rect></g><g transform="translate(-10,-10) scale(1,1)"><rect fill="#ffffff" stroke="none" x="133" y="21" width="94" height="37"></rect></g><g transform="translate(-10,-10) scale(1,1)"><path fill="none" stroke="#000000" d="M 133 21 L 227 21 L 227 58 L 133 58 L 133 21 Z Z" stroke-miterlimit="10"></path></g><g transform="translate(-10,-10) scale(1,1)"><g><path fill="none" stroke="none"></path><text fill="#000000" stroke="none" font-family="Arial" font-size="13px" font-style="normal" font-weight="normal" text-decoration="none" x="137.5" y="38.5">«enumeration»</text></g></g><g transform="translate(-10,-10) scale(1,1)"><g><path fill="none" stroke="none"></path><text fill="#000000" stroke="none" font-family="Arial" font-size="13px" font-style="normal" font-weight="bold" text-decoration="none" x="156" y="53.5">ePriority</text></g></g><g transform="translate(-10,-10) scale(1,1)"><rect fill="#C0C0C0" stroke="none" x="755.5" y="97" width="9" height="24" opacity="0.2"></rect></g><g transform="translate(-10,-10) scale(1,1)"><rect fill="#ffffff" stroke="none" x="748.5" y="90" width="9" height="24"></rect></g><g transform="translate(-10,-10) scale(1,1)"><path fill="none" stroke="#000000" d="M 748.5 90 L 757.5 90 L 757.5 114 L 748.5 114 L 748.5 90 Z Z" stroke-miterlimit="10"></path></g><g transform="translate(-10,-10) scale(1,1)"><g><path fill="none" stroke="none"></path><text fill="#000000" stroke="none" font-family="Arial" font-size="13px" font-style="normal" font-weight="bold" text-decoration="none" x="753" y="109.5"></text></g></g><g transform="translate(-10,-10) scale(1,1)"><rect fill="#C0C0C0" stroke="none" x="265" y="27" width="40.39999999999998" height="15" opacity="0.2"></rect></g><g transform="translate(-10,-10) scale(1,1)"><rect fill="#C0C0C0" stroke="none" x="265" y="41" width="101" height="25" opacity="0.2"></rect></g><g transform="translate(-10,-10) scale(1,1)"><rect fill="#ffffff" stroke="none" x="258" y="35" width="101" height="24"></rect></g><g transform="translate(-10,-10) scale(1,1)"><path fill="none" stroke="#000000" d="M 258 35 L 359 35 L 359 59 L 258 59 L 258 35 Z Z" stroke-miterlimit="10"></path></g><g transform="translate(-10,-10) scale(1,1)"><rect fill="#ffffff" stroke="none" x="258" y="20" width="40.39999999999998" height="15"></rect></g><g transform="translate(-10,-10) scale(1,1)"><path fill="none" stroke="#000000" d="M 258 20 L 298.4 20 L 298.4 35 L 258 35 L 258 20 Z Z" stroke-miterlimit="10"></path></g><g transform="translate(-10,-10) scale(1,1)"><rect fill="#ffffff" stroke="none" x="258" y="34" width="101" height="25"></rect></g><g transform="translate(-10,-10) scale(1,1)"><path fill="none" stroke="#000000" d="M 258 34 L 359 34 L 359 59 L 258 59 L 258 34 Z Z" stroke-miterlimit="10"></path></g><g transform="translate(-10,-10) scale(1,1)"><g><path fill="none" stroke="none"></path><text fill="#000000" stroke="none" font-family="Arial" font-size="13px" font-style="normal" font-weight="bold" text-decoration="none" x="266" y="54.5">commonTypes</text></g></g><g transform="translate(-10,-10) scale(1,1)"><rect fill="#C0C0C0" stroke="none" x="889.5" y="97" width="9" height="24" opacity="0.2"></rect></g><g transform="translate(-10,-10) scale(1,1)"><rect fill="#ffffff" stroke="none" x="882.5" y="90" width="9" height="24"></rect></g><g transform="translate(-10,-10) scale(1,1)"><path fill="none" stroke="#000000" d="M 882.5 90 L 891.5 90 L 891.5 114 L 882.5 114 L 882.5 90 Z Z" stroke-miterlimit="10"></path></g><g transform="translate(-10,-10) scale(1,1)"><g><path fill="none" stroke="none"></path><text fill="#000000" stroke="none" font-family="Arial" font-size="13px" font-style="normal" font-weight="bold" text-decoration="none" x="887" y="109.5"></text></g></g><g transform="translate(-10,-10) scale(1,1)"><rect fill="#C0C0C0" stroke="none" x="397" y="34.5" width="9" height="24" opacity="0.2"></rect></g><g transform="translate(-10,-10) scale(1,1)"><rect fill="#ffffff" stroke="none" x="390" y="27.5" width="9" height="24"></rect></g><g transform="translate(-10,-10) scale(1,1)"><path fill="none" stroke="#000000" d="M 390 27.5 L 399 27.5 L 399 51.5 L 390 51.5 L 390 27.5 Z Z" stroke-miterlimit="10"></path></g><g transform="translate(-10,-10) scale(1,1)"><g><path fill="none" stroke="none"></path><text fill="#000000" stroke="none" font-family="Arial" font-size="13px" font-style="normal" font-weight="bold" text-decoration="none" x="394.5" y="47"></text></g></g><g transform="translate(-10,-10) scale(1,1)"><rect fill="#C0C0C0" stroke="none" x="437" y="34.5" width="9" height="24" opacity="0.2"></rect></g><g transform="translate(-10,-10) scale(1,1)"><rect fill="#ffffff" stroke="none" x="430" y="27.5" width="9" height="24"></rect></g><g transform="translate(-10,-10) scale(1,1)"><path fill="none" stroke="#000000" d="M 430 27.5 L 439 27.5 L 439 51.5 L 430 51.5 L 430 27.5 Z Z" stroke-miterlimit="10"></path></g><g transform="translate(-10,-10) scale(1,1)"><g><path fill="none" stroke="none"></path><text fill="#000000" stroke="none" font-family="Arial" font-size="13px" font-style="normal" font-weight="bold" text-decoration="none" x="434.5" y="47"></text></g></g><g transform="translate(-10,-10) scale(1,1)"><rect fill="#C0C0C0" stroke="none" x="477" y="34.5" width="9" height="24" opacity="0.2"></rect></g><g transform="translate(-10,-10) scale(1,1)"><rect fill="#ffffff" stroke="none" x="470" y="27.5" width="9" height="24"></rect></g><g transform="translate(-10,-10) scale(1,1)"><path fill="none" stroke="#000000" d="M 470 27.5 L 479 27.5 L 479 51.5 L 470 51.5 L 470 27.5 Z Z" stroke-miterlimit="10"></path></g><g transform="translate(-10,-10) scale(1,1)"><g><path fill="none" stroke="none"></path><text fill="#000000" stroke="none" font-family="Arial" font-size="13px" font-style="normal" font-weight="bold" text-decoration="none" x="474.5" y="47"></text></g></g><g transform="translate(-10,-10) scale(1,1)"><rect fill="#C0C0C0" stroke="none" x="517" y="34.5" width="9" height="24" opacity="0.2"></rect></g><g transform="translate(-10,-10) scale(1,1)"><rect fill="#ffffff" stroke="none" x="510" y="27.5" width="9" height="24"></rect></g><g transform="translate(-10,-10) scale(1,1)"><path fill="none" stroke="#000000" d="M 510 27.5 L 519 27.5 L 519 51.5 L 510 51.5 L 510 27.5 Z Z" stroke-miterlimit="10"></path></g><g transform="translate(-10,-10) scale(1,1)"><g><path fill="none" stroke="none"></path><text fill="#000000" stroke="none" font-family="Arial" font-size="13px" font-style="normal" font-weight="bold" text-decoration="none" x="514.5" y="47"></text></g></g><g transform="translate(-10,-10) scale(1,1)"><rect fill="#C0C0C0" stroke="none" x="557" y="34.5" width="142" height="24" opacity="0.2"></rect></g><g transform="translate(-10,-10) scale(1,1)"><rect fill="#ffffff" stroke="none" x="550" y="27.5" width="142" height="24"></rect></g><g transform="translate(-10,-10) scale(1,1)"><path fill="none" stroke="#000000" d="M 550 27.5 L 692 27.5 L 692 51.5 L 550 51.5 L 550 27.5 Z Z" stroke-miterlimit="10"></path></g><g transform="translate(-10,-10) scale(1,1)"><g><path fill="none" stroke="none"></path><text fill="#000000" stroke="none" font-family="Arial" font-size="13px" font-style="normal" font-weight="bold" text-decoration="none" x="561" y="47">IsmartLightsInterface</text></g></g><g transform="translate(-10,-10) scale(1,1)"><rect fill="#C0C0C0" stroke="none" x="730" y="34.5" width="60" height="24" opacity="0.2"></rect></g><g transform="translate(-10,-10) scale(1,1)"><rect fill="#ffffff" stroke="none" x="723" y="27.5" width="60" height="24"></rect></g><g transform="translate(-10,-10) scale(1,1)"><path fill="none" stroke="#000000" d="M 723 27.5 L 783 27.5 L 783 51.5 L 723 51.5 L 723 27.5 Z Z" stroke-miterlimit="10"></path></g><g transform="translate(-10,-10) scale(1,1)"><g><path fill="none" stroke="none"></path><text fill="#000000" stroke="none" font-family="Arial" font-size="13px" font-style="normal" font-weight="bold" text-decoration="none" x="729" y="47">QObject</text></g></g><g transform="translate(-10,-10) scale(1,1)"><path fill="none" stroke="#000000" d="M 753 89 Q 754 75 753 53" stroke-miterlimit="10"></path></g><g transform="translate(-10,-10) scale(1,1)"><path fill="#FFFFFF" stroke="none" d="M 762.3332782033563 72.92209622451301 L 753 53 L 745.5125749724897 73.68667364409785"></path></g><g transform="translate(-10,-10) scale(1,1)"><path fill="none" stroke="#000000" d="M 762.3332782033563 72.92209622451301 L 753 53 L 745.5125749724897 73.68667364409785 L 762.3332782033563 72.92209622451301" stroke-miterlimit="10"></path></g><g transform="translate(-10,-10) scale(1,1)"><rect fill="#C0C0C0" stroke="none" x="821" y="34.5" width="146" height="24" opacity="0.2"></rect></g><g transform="translate(-10,-10) scale(1,1)"><rect fill="#ffffff" stroke="none" x="814" y="27.5" width="146" height="24"></rect></g><g transform="translate(-10,-10) scale(1,1)"><path fill="none" stroke="#000000" d="M 814 27.5 L 960 27.5 L 960 51.5 L 814 51.5 L 814 27.5 Z Z" stroke-miterlimit="10"></path></g><g transform="translate(-10,-10) scale(1,1)"><g><path fill="none" stroke="none"></path><text fill="#000000" stroke="none" font-family="Arial" font-size="13px" font-style="normal" font-weight="bold" text-decoration="none" x="826.5" y="47">ILightSourceInterface</text></g></g><g transform="translate(-10,-10) scale(1,1)"><path fill="none" stroke="#000000" d="M 887 89 Q 888 75 887 53" stroke-miterlimit="10"></path></g><g transform="translate(-10,-10) scale(1,1)"><path fill="#FFFFFF" stroke="none" d="M 896.3332782033563 72.92209622451301 L 887 53 L 879.5125749724897 73.68667364409785"></path></g><g transform="translate(-10,-10) scale(1,1)"><path fill="none" stroke="#000000" d="M 896.3332782033563 72.92209622451301 L 887 53 L 879.5125749724897 73.68667364409785 L 896.3332782033563 72.92209622451301" stroke-miterlimit="10"></path></g><g transform="translate(-10,-10) scale(1,1)"><rect fill="#C0C0C0" stroke="none" x="998" y="34.5" width="225" height="24" opacity="0.2"></rect></g><g transform="translate(-10,-10) scale(1,1)"><rect fill="#ffffff" stroke="none" x="991" y="27.5" width="225" height="24"></rect></g><g transform="translate(-10,-10) scale(1,1)"><path fill="none" stroke="#000000" d="M 991 27.5 L 1216 27.5 L 1216 51.5 L 991 51.5 L 991 27.5 Z Z" stroke-miterlimit="10"></path></g><g transform="translate(-10,-10) scale(1,1)"><g><path fill="none" stroke="none"></path><text fill="#000000" stroke="none" font-family="Arial" font-size="13px" font-style="normal" font-weight="bold" text-decoration="none" x="1007" y="47">IApplicationStateInterfaceListener</text></g></g><g transform="translate(-10,-10) scale(1,1)"><rect fill="#C0C0C0" stroke="none" x="1254" y="34.5" width="170" height="24" opacity="0.2"></rect></g><g transform="translate(-10,-10) scale(1,1)"><rect fill="#ffffff" stroke="none" x="1247" y="27.5" width="170" height="24"></rect></g><g transform="translate(-10,-10) scale(1,1)"><path fill="none" stroke="#000000" d="M 1247 27.5 L 1417 27.5 L 1417 51.5 L 1247 51.5 L 1247 27.5 Z Z" stroke-miterlimit="10"></path></g><g transform="translate(-10,-10) scale(1,1)"><g><path fill="none" stroke="none"></path><text fill="#000000" stroke="none" font-family="Arial" font-size="13px" font-style="normal" font-weight="bold" text-decoration="none" x="1259.5" y="47">ISensorCommonInterface</text></g></g><g transform="translate(-10,-10) scale(1,1)"><rect fill="#C0C0C0" stroke="none" x="1455" y="34.5" width="56" height="24" opacity="0.2"></rect></g><g transform="translate(-10,-10) scale(1,1)"><rect fill="#ffffff" stroke="none" x="1448" y="27.5" width="56" height="24"></rect></g><g transform="translate(-10,-10) scale(1,1)"><path fill="none" stroke="#000000" d="M 1448 27.5 L 1504 27.5 L 1504 51.5 L 1448 51.5 L 1448 27.5 Z Z" stroke-miterlimit="10"></path></g><g transform="translate(-10,-10) scale(1,1)"><g><path fill="none" stroke="none"></path><text fill="#000000" stroke="none" font-family="Arial" font-size="13px" font-style="normal" font-weight="bold" text-decoration="none" x="1455" y="47">eGroup</text></g></g><g transform="translate(-10,-10) scale(1,1)"><rect fill="#C0C0C0" stroke="none" x="1542" y="34.5" width="58" height="24" opacity="0.2"></rect></g><g transform="translate(-10,-10) scale(1,1)"><rect fill="#ffffff" stroke="none" x="1535" y="27.5" width="58" height="24"></rect></g><g transform="translate(-10,-10) scale(1,1)"><path fill="none" stroke="#000000" d="M 1535 27.5 L 1593 27.5 L 1593 51.5 L 1535 51.5 L 1535 27.5 Z Z" stroke-miterlimit="10"></path></g><g transform="translate(-10,-10) scale(1,1)"><g><path fill="none" stroke="none"></path><text fill="#000000" stroke="none" font-family="Arial" font-size="13px" font-style="normal" font-weight="bold" text-decoration="none" x="1541" y="47">u_int8_t</text></g></g><g transform="translate(-10,-10) scale(1,1)"><rect fill="#C0C0C0" stroke="none" x="1631" y="34.5" width="57" height="24" opacity="0.2"></rect></g><g transform="translate(-10,-10) scale(1,1)"><rect fill="#ffffff" stroke="none" x="1624" y="27.5" width="57" height="24"></rect></g><g transform="translate(-10,-10) scale(1,1)"><path fill="none" stroke="#000000" d="M 1624 27.5 L 1681 27.5 L 1681 51.5 L 1624 51.5 L 1624 27.5 Z Z" stroke-miterlimit="10"></path></g><g transform="translate(-10,-10) scale(1,1)"><g><path fill="none" stroke="none"></path><text fill="#000000" stroke="none" font-family="Arial" font-size="13px" font-style="normal" font-weight="bold" text-decoration="none" x="1630.5" y="47">eColors</text></g></g><g transform="translate(-10,-10) scale(1,1)"><rect fill="#C0C0C0" stroke="none" x="1719" y="34.5" width="86" height="24" opacity="0.2"></rect></g><g transform="translate(-10,-10) scale(1,1)"><rect fill="#ffffff" stroke="none" x="1712" y="27.5" width="86" height="24"></rect></g><g transform="translate(-10,-10) scale(1,1)"><path fill="none" stroke="#000000" d="M 1712 27.5 L 1798 27.5 L 1798 51.5 L 1712 51.5 L 1712 27.5 Z Z" stroke-miterlimit="10"></path></g><g transform="translate(-10,-10) scale(1,1)"><g><path fill="none" stroke="none"></path><text fill="#000000" stroke="none" font-family="Arial" font-size="13px" font-style="normal" font-weight="bold" text-decoration="none" x="1717" y="47">sMessage_t*</text></g></g><g transform="translate(-10,-10) scale(1,1)"><rect fill="#C0C0C0" stroke="none" x="1836" y="34.5" width="58" height="24" opacity="0.2"></rect></g><g transform="translate(-10,-10) scale(1,1)"><rect fill="#ffffff" stroke="none" x="1829" y="27.5" width="58" height="24"></rect></g><g transform="translate(-10,-10) scale(1,1)"><path fill="none" stroke="#000000" d="M 1829 27.5 L 1887 27.5 L 1887 51.5 L 1829 51.5 L 1829 27.5 Z Z" stroke-miterlimit="10"></path></g><g transform="translate(-10,-10) scale(1,1)"><g><path fill="none" stroke="none"></path><text fill="#000000" stroke="none" font-family="Arial" font-size="13px" font-style="normal" font-weight="bold" text-decoration="none" x="1835" y="47">uint64_t</text></g></g><g transform="translate(-10,-10) scale(1,1)"><rect fill="#C0C0C0" stroke="none" x="1925" y="34.5" width="41" height="24" opacity="0.2"></rect></g><g transform="translate(-10,-10) scale(1,1)"><rect fill="#ffffff" stroke="none" x="1918" y="27.5" width="41" height="24"></rect></g><g transform="translate(-10,-10) scale(1,1)"><path fill="none" stroke="#000000" d="M 1918 27.5 L 1959 27.5 L 1959 51.5 L 1918 51.5 L 1918 27.5 Z Z" stroke-miterlimit="10"></path></g><g transform="translate(-10,-10) scale(1,1)"><g><path fill="none" stroke="none"></path><text fill="#000000" stroke="none" font-family="Arial" font-size="13px" font-style="normal" font-weight="bold" text-decoration="none" x="1925" y="47">void*</text></g></g><g transform="translate(-10,-10) scale(1,1)"><rect fill="#C0C0C0" stroke="none" x="1997" y="34.5" width="60" height="24" opacity="0.2"></rect></g><g transform="translate(-10,-10) scale(1,1)"><rect fill="#ffffff" stroke="none" x="1990" y="27.5" width="60" height="24"></rect></g><g transform="translate(-10,-10) scale(1,1)"><path fill="none" stroke="#000000" d="M 1990 27.5 L 2050 27.5 L 2050 51.5 L 1990 51.5 L 1990 27.5 Z Z" stroke-miterlimit="10"></path></g><g transform="translate(-10,-10) scale(1,1)"><g><path fill="none" stroke="none"></path><text fill="#000000" stroke="none" font-family="Arial" font-size="13px" font-style="normal" font-weight="bold" text-decoration="none" x="1996" y="47">uint8_t&amp;</text></g></g><g transform="translate(-10,-10) scale(1,1)"><rect fill="#C0C0C0" stroke="none" x="2088" y="34.5" width="42" height="24" opacity="0.2"></rect></g><g transform="translate(-10,-10) scale(1,1)"><rect fill="#ffffff" stroke="none" x="2081" y="27.5" width="42" height="24"></rect></g><g transform="translate(-10,-10) scale(1,1)"><path fill="none" stroke="#000000" d="M 2081 27.5 L 2123 27.5 L 2123 51.5 L 2081 51.5 L 2081 27.5 Z Z" stroke-miterlimit="10"></path></g><g transform="translate(-10,-10) scale(1,1)"><g><path fill="none" stroke="none"></path><text fill="#000000" stroke="none" font-family="Arial" font-size="13px" font-style="normal" font-weight="bold" text-decoration="none" x="2087" y="47">char*</text></g></g><g transform="translate(-10,-10) scale(1,1)"><rect fill="#C0C0C0" stroke="none" x="2161" y="34.5" width="58" height="24" opacity="0.2"></rect></g><g transform="translate(-10,-10) scale(1,1)"><rect fill="#ffffff" stroke="none" x="2154" y="27.5" width="58" height="24"></rect></g><g transform="translate(-10,-10) scale(1,1)"><path fill="none" stroke="#000000" d="M 2154 27.5 L 2212 27.5 L 2212 51.5 L 2154 51.5 L 2154 27.5 Z Z" stroke-miterlimit="10"></path></g><g transform="translate(-10,-10) scale(1,1)"><g><path fill="none" stroke="none"></path><text fill="#000000" stroke="none" font-family="Arial" font-size="13px" font-style="normal" font-weight="bold" text-decoration="none" x="2160" y="47">uint32_t</text></g></g><g transform="translate(-10,-10) scale(1,1)"><rect fill="#C0C0C0" stroke="none" x="2250" y="34.5" width="50" height="24" opacity="0.2"></rect></g><g transform="translate(-10,-10) scale(1,1)"><rect fill="#ffffff" stroke="none" x="2243" y="27.5" width="50" height="24"></rect></g><g transform="translate(-10,-10) scale(1,1)"><path fill="none" stroke="#000000" d="M 2243 27.5 L 2293 27.5 L 2293 51.5 L 2243 51.5 L 2243 27.5 Z Z" stroke-miterlimit="10"></path></g><g transform="translate(-10,-10) scale(1,1)"><g><path fill="none" stroke="none"></path><text fill="#000000" stroke="none" font-family="Arial" font-size="13px" font-style="normal" font-weight="bold" text-decoration="none" x="2248.5" y="47">int16_t</text></g></g><g transform="translate(-10,-10) scale(1,1)"><rect fill="#C0C0C0" stroke="none" x="2331" y="34.5" width="51" height="24" opacity="0.2"></rect></g><g transform="translate(-10,-10) scale(1,1)"><rect fill="#ffffff" stroke="none" x="2324" y="27.5" width="51" height="24"></rect></g><g transform="translate(-10,-10) scale(1,1)"><path fill="none" stroke="#000000" d="M 2324 27.5 L 2375 27.5 L 2375 51.5 L 2324 51.5 L 2324 27.5 Z Z" stroke-miterlimit="10"></path></g><g transform="translate(-10,-10) scale(1,1)"><g><path fill="none" stroke="none"></path><text fill="#000000" stroke="none" font-family="Arial" font-size="13px" font-style="normal" font-weight="bold" text-decoration="none" x="2330" y="47">uint8_t</text></g></g><g transform="translate(-10,-10) scale(1,1)"><rect fill="#C0C0C0" stroke="none" x="2413" y="34.5" width="65" height="24" opacity="0.2"></rect></g><g transform="translate(-10,-10) scale(1,1)"><rect fill="#ffffff" stroke="none" x="2406" y="27.5" width="65" height="24"></rect></g><g transform="translate(-10,-10) scale(1,1)"><path fill="none" stroke="#000000" d="M 2406 27.5 L 2471 27.5 L 2471 51.5 L 2406 51.5 L 2406 27.5 Z Z" stroke-miterlimit="10"></path></g><g transform="translate(-10,-10) scale(1,1)"><g><path fill="none" stroke="none"></path><text fill="#000000" stroke="none" font-family="Arial" font-size="13px" font-style="normal" font-weight="bold" text-decoration="none" x="2412" y="47">u_int32_t</text></g></g><g transform="translate(-10,-10) scale(1,1)"><rect fill="#C0C0C0" stroke="none" x="2509" y="34.5" width="224" height="24" opacity="0.2"></rect></g><g transform="translate(-10,-10) scale(1,1)"><rect fill="#ffffff" stroke="none" x="2502" y="27.5" width="224" height="24"></rect></g><g transform="translate(-10,-10) scale(1,1)"><path fill="none" stroke="#000000" d="M 2502 27.5 L 2726 27.5 L 2726 51.5 L 2502 51.5 L 2502 27.5 Z Z" stroke-miterlimit="10"></path></g><g transform="translate(-10,-10) scale(1,1)"><g><path fill="none" stroke="none"></path><text fill="#000000" stroke="none" font-family="Arial" font-size="13px" font-style="normal" font-weight="bold" text-decoration="none" x="2518" y="47">ILightSourceInterface::eInterfaces</text></g></g><g transform="translate(-10,-10) scale(1,1)"><rect fill="#C0C0C0" stroke="none" x="2764" y="34.5" width="201" height="24" opacity="0.2"></rect></g><g transform="translate(-10,-10) scale(1,1)"><rect fill="#ffffff" stroke="none" x="2757" y="27.5" width="201" height="24"></rect></g><g transform="translate(-10,-10) scale(1,1)"><path fill="none" stroke="#000000" d="M 2757 27.5 L 2958 27.5 L 2958 51.5 L 2757 51.5 L 2757 27.5 Z Z" stroke-miterlimit="10"></path></g><g transform="translate(-10,-10) scale(1,1)"><g><path fill="none" stroke="none"></path><text fill="#000000" stroke="none" font-family="Arial" font-size="13px" font-style="normal" font-weight="bold" text-decoration="none" x="2772" y="47">ILightSourceInterface::eGroup</text></g></g><g transform="translate(-10,-10) scale(1,1)"><rect fill="#C0C0C0" stroke="none" x="2996" y="34.5" width="243" height="24" opacity="0.2"></rect></g><g transform="translate(-10,-10) scale(1,1)"><rect fill="#ffffff" stroke="none" x="2989" y="27.5" width="243" height="24"></rect></g><g transform="translate(-10,-10) scale(1,1)"><path fill="none" stroke="#000000" d="M 2989 27.5 L 3232 27.5 L 3232 51.5 L 2989 51.5 L 2989 27.5 Z Z" stroke-miterlimit="10"></path></g><g transform="translate(-10,-10) scale(1,1)"><g><path fill="none" stroke="none"></path><text fill="#000000" stroke="none" font-family="Arial" font-size="13px" font-style="normal" font-weight="bold" text-decoration="none" x="3002" y="47">commonTypes::limitless::eGroupOn&amp;</text></g></g><g transform="translate(-10,-10) scale(1,1)"><rect fill="#C0C0C0" stroke="none" x="3270" y="34.5" width="243" height="24" opacity="0.2"></rect></g><g transform="translate(-10,-10) scale(1,1)"><rect fill="#ffffff" stroke="none" x="3263" y="27.5" width="243" height="24"></rect></g><g transform="translate(-10,-10) scale(1,1)"><path fill="none" stroke="#000000" d="M 3263 27.5 L 3506 27.5 L 3506 51.5 L 3263 51.5 L 3263 27.5 Z Z" stroke-miterlimit="10"></path></g><g transform="translate(-10,-10) scale(1,1)"><g><path fill="none" stroke="none"></path><text fill="#000000" stroke="none" font-family="Arial" font-size="13px" font-style="normal" font-weight="bold" text-decoration="none" x="3276.5" y="47">commonTypes::limitless::eGroupOff&amp;</text></g></g><g transform="translate(-10,-10) scale(1,1)"><rect fill="#C0C0C0" stroke="none" x="3544" y="34.5" width="265" height="24" opacity="0.2"></rect></g><g transform="translate(-10,-10) scale(1,1)"><rect fill="#ffffff" stroke="none" x="3537" y="27.5" width="265" height="24"></rect></g><g transform="translate(-10,-10) scale(1,1)"><path fill="none" stroke="#000000" d="M 3537 27.5 L 3802 27.5 L 3802 51.5 L 3537 51.5 L 3537 27.5 Z Z" stroke-miterlimit="10"></path></g><g transform="translate(-10,-10) scale(1,1)"><g><path fill="none" stroke="none"></path><text fill="#000000" stroke="none" font-family="Arial" font-size="13px" font-style="normal" font-weight="bold" text-decoration="none" x="3550.5" y="47">commonTypes::limitless::eSetWhiteCol&amp;</text></g></g><g transform="translate(-10,-10) scale(1,1)"><rect fill="#C0C0C0" stroke="none" x="3840" y="34.5" width="342" height="24" opacity="0.2"></rect></g><g transform="translate(-10,-10) scale(1,1)"><rect fill="#ffffff" stroke="none" x="3833" y="27.5" width="342" height="24"></rect></g><g transform="translate(-10,-10) scale(1,1)"><path fill="none" stroke="#000000" d="M 3833 27.5 L 4175 27.5 L 4175 51.5 L 3833 51.5 L 3833 27.5 Z Z" stroke-miterlimit="10"></path></g><g transform="translate(-10,-10) scale(1,1)"><g><path fill="none" stroke="none"></path><text fill="#000000" stroke="none" font-family="Arial" font-size="13px" font-style="normal" font-weight="bold" text-decoration="none" x="3850" y="47">smartLightsFrontend::CSmartLightsInterface::sData_t</text></g></g><g transform="translate(-10,-10) scale(1,1)"><rect fill="#C0C0C0" stroke="none" x="4213" y="34.5" width="95" height="24" opacity="0.2"></rect></g><g transform="translate(-10,-10) scale(1,1)"><rect fill="#ffffff" stroke="none" x="4206" y="27.5" width="95" height="24"></rect></g><g transform="translate(-10,-10) scale(1,1)"><path fill="none" stroke="#000000" d="M 4206 27.5 L 4301 27.5 L 4301 51.5 L 4206 51.5 L 4206 27.5 Z Z" stroke-miterlimit="10"></path></g><g transform="translate(-10,-10) scale(1,1)"><g><path fill="none" stroke="none"></path><text fill="#000000" stroke="none" font-family="Arial" font-size="13px" font-style="normal" font-weight="bold" text-decoration="none" x="4213.5" y="47">sCurrentState</text></g></g><g transform="translate(-10,-10) scale(1,1)"><rect fill="#C0C0C0" stroke="none" x="4339" y="34.5" width="230" height="24" opacity="0.2"></rect></g><g transform="translate(-10,-10) scale(1,1)"><rect fill="#ffffff" stroke="none" x="4332" y="27.5" width="230" height="24"></rect></g><g transform="translate(-10,-10) scale(1,1)"><path fill="none" stroke="#000000" d="M 4332 27.5 L 4562 27.5 L 4562 51.5 L 4332 51.5 L 4332 27.5 Z Z" stroke-miterlimit="10"></path></g><g transform="translate(-10,-10) scale(1,1)"><g><path fill="none" stroke="none"></path><text fill="#000000" stroke="none" font-family="Arial" font-size="13px" font-style="italic" font-weight="bold" text-decoration="none" x="4346.5" y="47">IApplicationStateInterfaceListener*</text></g></g><g transform="translate(-10,-10) scale(1,1)"><rect fill="#C0C0C0" stroke="none" x="4600" y="34.5" width="226" height="24" opacity="0.2"></rect></g><g transform="translate(-10,-10) scale(1,1)"><rect fill="#ffffff" stroke="none" x="4593" y="27.5" width="226" height="24"></rect></g><g transform="translate(-10,-10) scale(1,1)"><path fill="none" stroke="#000000" d="M 4593 27.5 L 4819 27.5 L 4819 51.5 L 4593 51.5 L 4593 27.5 Z Z" stroke-miterlimit="10"></path></g><g transform="translate(-10,-10) scale(1,1)"><g><path fill="none" stroke="none"></path><text fill="#000000" stroke="none" font-family="Arial" font-size="13px" font-style="normal" font-weight="bold" text-decoration="none" x="4608" y="47">ISensorCommonInterfaceListener*</text></g></g><g transform="translate(-10,-10) scale(1,1)"><rect fill="#C0C0C0" stroke="none" x="4857" y="34.5" width="314" height="24" opacity="0.2"></rect></g><g transform="translate(-10,-10) scale(1,1)"><rect fill="#ffffff" stroke="none" x="4850" y="27.5" width="314" height="24"></rect></g><g transform="translate(-10,-10) scale(1,1)"><path fill="none" stroke="#000000" d="M 4850 27.5 L 5164 27.5 L 5164 51.5 L 4850 51.5 L 4850 27.5 Z Z" stroke-miterlimit="10"></path></g><g transform="translate(-10,-10) scale(1,1)"><g><path fill="none" stroke="none"></path><text fill="#000000" stroke="none" font-family="Arial" font-size="13px" font-style="normal" font-weight="bold" text-decoration="none" x="4867" y="47">ISensorCommonInterface::sSensorCommonData</text></g></g><g transform="translate(-10,-10) scale(1,1)"><rect fill="#C0C0C0" stroke="none" x="5202" y="34.5" width="74" height="24" opacity="0.2"></rect></g><g transform="translate(-10,-10) scale(1,1)"><rect fill="#ffffff" stroke="none" x="5195" y="27.5" width="74" height="24"></rect></g><g transform="translate(-10,-10) scale(1,1)"><path fill="none" stroke="#000000" d="M 5195 27.5 L 5269 27.5 L 5269 51.5 L 5195 51.5 L 5195 27.5 Z Z" stroke-miterlimit="10"></path></g><g transform="translate(-10,-10) scale(1,1)"><g><path fill="none" stroke="none"></path><text fill="#000000" stroke="none" font-family="Arial" font-size="13px" font-style="normal" font-weight="bold" text-decoration="none" x="5202" y="47">eSensorID</text></g></g></g></svg>