<svg version="1.1" xmlns="http://www.w3.org/2000/svg" xmlns:xlink="http://www.w3.org/1999/xlink" width="387" height="161"><defs></defs><g><g transform="translate(-9,-9) scale(1,1)"><rect fill="#C0C0C0" stroke="none" x="140" y="27" width="32.80000000000001" height="15" opacity="0.2"></rect></g><g transform="translate(-9,-9) scale(1,1)"><rect fill="#C0C0C0" stroke="none" x="140" y="41" width="82" height="25" opacity="0.2"></rect></g><g transform="translate(-9,-9) scale(1,1)"><rect fill="#ffffff" stroke="none" x="133" y="35" width="82" height="24"></rect></g><g transform="translate(-9,-9) scale(1,1)"><path fill="none" stroke="#000000" d="M 133 35 L 215 35 L 215 59 L 133 59 L 133 35 Z Z" stroke-miterlimit="10"></path></g><g transform="translate(-9,-9) scale(1,1)"><rect fill="#ffffff" stroke="none" x="133" y="20" width="32.80000000000001" height="15"></rect></g><g transform="translate(-9,-9) scale(1,1)"><path fill="none" stroke="#000000" d="M 133 20 L 165.8 20 L 165.8 35 L 133 35 L 133 20 Z Z" stroke-miterlimit="10"></path></g><g transform="translate(-9,-9) scale(1,1)"><rect fill="#ffffff" stroke="none" x="133" y="34" width="82" height="25"></rect></g><g transform="translate(-9,-9) scale(1,1)"><path fill="none" stroke="#000000" d="M 133 34 L 215 34 L 215 59 L 133 59 L 133 34 Z Z" stroke-miterlimit="10"></path></g><g transform="translate(-9,-9) scale(1,1)"><g><path fill="none" stroke="none"></path><text fill="#000000" stroke="none" font-family="Arial" font-size="13px" font-style="normal" font-weight="bold" text-decoration="none" x="140" y="54.5">smartLights</text></g></g><g transform="translate(-9,-9) scale(1,1)"><rect fill="#C0C0C0" stroke="none" x="27" y="97" width="55.599999999999994" height="15" opacity="0.2"></rect></g><g transform="translate(-9,-9) scale(1,1)"><rect fill="#C0C0C0" stroke="none" x="27" y="111" width="139" height="25" opacity="0.2"></rect></g><g transform="translate(-9,-9) scale(1,1)"><rect fill="#ffffff" stroke="none" x="20" y="105" width="139" height="24"></rect></g><g transform="translate(-9,-9) scale(1,1)"><path fill="none" stroke="#000000" d="M 20 105 L 159 105 L 159 129 L 20 129 L 20 105 Z Z" stroke-miterlimit="10"></path></g><g transform="translate(-9,-9) scale(1,1)"><rect fill="#ffffff" stroke="none" x="20" y="90" width="55.599999999999994" height="15"></rect></g><g transform="translate(-9,-9) scale(1,1)"><path fill="none" stroke="#000000" d="M 20 90 L 75.6 90 L 75.6 105 L 20 105 L 20 90 Z Z" stroke-miterlimit="10"></path></g><g transform="translate(-9,-9) scale(1,1)"><rect fill="#ffffff" stroke="none" x="20" y="104" width="139" height="25"></rect></g><g transform="translate(-9,-9) scale(1,1)"><path fill="none" stroke="#000000" d="M 20 104 L 159 104 L 159 129 L 20 129 L 20 104 Z Z" stroke-miterlimit="10"></path></g><g transform="translate(-9,-9) scale(1,1)"><g><path fill="none" stroke="none"></path><text fill="#000000" stroke="none" font-family="Arial" font-size="13px" font-style="normal" font-weight="bold" text-decoration="none" x="30" y="124.5">smartLightsFrontend</text></g></g><g transform="translate(-9,-9) scale(1,1)"><rect fill="#C0C0C0" stroke="none" x="197" y="97" width="54.80000000000001" height="15" opacity="0.2"></rect></g><g transform="translate(-9,-9) scale(1,1)"><rect fill="#C0C0C0" stroke="none" x="197" y="111" width="137" height="25" opacity="0.2"></rect></g><g transform="translate(-9,-9) scale(1,1)"><rect fill="#ffffff" stroke="none" x="190" y="105" width="137" height="24"></rect></g><g transform="translate(-9,-9) scale(1,1)"><path fill="none" stroke="#000000" d="M 190 105 L 327 105 L 327 129 L 190 129 L 190 105 Z Z" stroke-miterlimit="10"></path></g><g transform="translate(-9,-9) scale(1,1)"><rect fill="#ffffff" stroke="none" x="190" y="90" width="54.80000000000001" height="15"></rect></g><g transform="translate(-9,-9) scale(1,1)"><path fill="none" stroke="#000000" d="M 190 90 L 244.8 90 L 244.8 105 L 190 105 L 190 90 Z Z" stroke-miterlimit="10"></path></g><g transform="translate(-9,-9) scale(1,1)"><rect fill="#ffffff" stroke="none" x="190" y="104" width="137" height="25"></rect></g><g transform="translate(-9,-9) scale(1,1)"><path fill="none" stroke="#000000" d="M 190 104 L 327 104 L 327 129 L 190 129 L 190 104 Z Z" stroke-miterlimit="10"></path></g><g transform="translate(-9,-9) scale(1,1)"><g><path fill="none" stroke="none"></path><text fill="#000000" stroke="none" font-family="Arial" font-size="13px" font-style="normal" font-weight="bold" text-decoration="none" x="199" y="124.5">smartLightsBackend</text></g></g><g transform="translate(-9,-9) scale(1,1)"><rect fill="#C0C0C0" stroke="none" x="340.5" y="27" width="40.39999999999998" height="15" opacity="0.2"></rect></g><g transform="translate(-9,-9) scale(1,1)"><rect fill="#C0C0C0" stroke="none" x="340.5" y="41" width="101" height="25" opacity="0.2"></rect></g><g transform="translate(-9,-9) scale(1,1)"><rect fill="#ffffff" stroke="none" x="333.5" y="35" width="101" height="24"></rect></g><g transform="translate(-9,-9) scale(1,1)"><path fill="none" stroke="#000000" d="M 333.5 35 L 434.5 35 L 434.5 59 L 333.5 59 L 333.5 35 Z Z" stroke-miterlimit="10"></path></g><g transform="translate(-9,-9) scale(1,1)"><rect fill="#ffffff" stroke="none" x="333.5" y="20" width="40.39999999999998" height="15"></rect></g><g transform="translate(-9,-9) scale(1,1)"><path fill="none" stroke="#000000" d="M 333.5 20 L 373.9 20 L 373.9 35 L 333.5 35 L 333.5 20 Z Z" stroke-miterlimit="10"></path></g><g transform="translate(-9,-9) scale(1,1)"><rect fill="#ffffff" stroke="none" x="333.5" y="34" width="101" height="25"></rect></g><g transform="translate(-9,-9) scale(1,1)"><path fill="none" stroke="#000000" d="M 333.5 34 L 434.5 34 L 434.5 59 L 333.5 59 L 333.5 34 Z Z" stroke-miterlimit="10"></path></g><g transform="translate(-9,-9) scale(1,1)"><g><path fill="none" stroke="none"></path><text fill="#000000" stroke="none" font-family="Arial" font-size="13px" font-style="normal" font-weight="bold" text-decoration="none" x="341.5" y="54.5">commonTypes</text></g></g><g transform="translate(-9,-9) scale(1,1)"><rect fill="#C0C0C0" stroke="none" x="365" y="97" width="20.80000000000001" height="15" opacity="0.2"></rect></g><g transform="translate(-9,-9) scale(1,1)"><rect fill="#C0C0C0" stroke="none" x="365" y="111" width="52" height="25" opacity="0.2"></rect></g><g transform="translate(-9,-9) scale(1,1)"><rect fill="#ffffff" stroke="none" x="358" y="105" width="52" height="24"></rect></g><g transform="translate(-9,-9) scale(1,1)"><path fill="none" stroke="#000000" d="M 358 105 L 410 105 L 410 129 L 358 129 L 358 105 Z Z" stroke-miterlimit="10"></path></g><g transform="translate(-9,-9) scale(1,1)"><rect fill="#ffffff" stroke="none" x="358" y="90" width="20.80000000000001" height="15"></rect></g><g transform="translate(-9,-9) scale(1,1)"><path fill="none" stroke="#000000" d="M 358 90 L 378.8 90 L 378.8 105 L 358 105 L 358 90 Z Z" stroke-miterlimit="10"></path></g><g transform="translate(-9,-9) scale(1,1)"><rect fill="#ffffff" stroke="none" x="358" y="104" width="52" height="25"></rect></g><g transform="translate(-9,-9) scale(1,1)"><path fill="none" stroke="#000000" d="M 358 104 L 410 104 L 410 129 L 358 129 L 358 104 Z Z" stroke-miterlimit="10"></path></g><g transform="translate(-9,-9) scale(1,1)"><g><path fill="none" stroke="none"></path><text fill="#000000" stroke="none" font-family="Arial" font-size="13px" font-style="normal" font-weight="bold" text-decoration="none" x="364.5" y="124.5">sender</text></g></g><g transform="translate(-9,-9) scale(1,1)"><rect fill="#C0C0C0" stroke="none" x="360.5" y="167" width="24.399999999999977" height="15" opacity="0.2"></rect></g><g transform="translate(-9,-9) scale(1,1)"><rect fill="#C0C0C0" stroke="none" x="360.5" y="181" width="61" height="25" opacity="0.2"></rect></g><g transform="translate(-9,-9) scale(1,1)"><rect fill="#ffffff" stroke="none" x="353.5" y="175" width="61" height="24"></rect></g><g transform="translate(-9,-9) scale(1,1)"><path fill="none" stroke="#000000" d="M 353.5 175 L 414.5 175 L 414.5 199 L 353.5 199 L 353.5 175 Z Z" stroke-miterlimit="10"></path></g><g transform="translate(-9,-9) scale(1,1)"><rect fill="#ffffff" stroke="none" x="353.5" y="160" width="24.399999999999977" height="15"></rect></g><g transform="translate(-9,-9) scale(1,1)"><path fill="none" stroke="#000000" d="M 353.5 160 L 377.9 160 L 377.9 175 L 353.5 175 L 353.5 160 Z Z" stroke-miterlimit="10"></path></g><g transform="translate(-9,-9) scale(1,1)"><rect fill="#ffffff" stroke="none" x="353.5" y="174" width="61" height="25"></rect></g><g transform="translate(-9,-9) scale(1,1)"><path fill="none" stroke="#000000" d="M 353.5 174 L 414.5 174 L 414.5 199 L 353.5 199 L 353.5 174 Z Z" stroke-miterlimit="10"></path></g><g transform="translate(-9,-9) scale(1,1)"><g><path fill="none" stroke="none"></path><text fill="#000000" stroke="none" font-family="Arial" font-size="13px" font-style="normal" font-weight="bold" text-decoration="none" x="360" y="194.5">limitless</text></g></g><g transform="translate(-9,-9) scale(1,1)"><path fill="none" stroke="#000000" d="M 90 89 Q 90 75 132 57" stroke-miterlimit="10"></path></g><g transform="translate(-9,-9) scale(1,1)"><path fill="#FFFFFF" stroke="none" d="M 118.5659847898736 59.75743509005417 C 118.5659847898736 55.89144149005417 121.6999911898736 52.75743509005417 125.5659847898736 52.75743509005417 C 129.4319783898736 52.75743509005417 132.5659847898736 55.89144149005417 132.5659847898736 59.75743509005417 C 132.5659847898736 63.623428690054176 129.4319783898736 66.75743509005417 125.5659847898736 66.75743509005417 C 121.6999911898736 66.75743509005417 118.5659847898736 63.623428690054176 118.5659847898736 59.75743509005417 Z"></path></g><g transform="translate(-9,-9) scale(1,1)"><path fill="none" stroke="#000000" d="M 118.5659847898736 59.75743509005417 C 118.5659847898736 55.89144149005417 121.6999911898736 52.75743509005417 125.5659847898736 52.75743509005417 C 129.4319783898736 52.75743509005417 132.5659847898736 55.89144149005417 132.5659847898736 59.75743509005417 C 132.5659847898736 63.623428690054176 129.4319783898736 66.75743509005417 125.5659847898736 66.75743509005417 C 121.6999911898736 66.75743509005417 118.5659847898736 63.623428690054176 118.5659847898736 59.75743509005417 Z" stroke-miterlimit="10"></path></g><g transform="translate(-9,-9) scale(1,1)"><path fill="none" stroke="#000000" d="M 119.13196957974719 62.514870180108346 L 132 57" stroke-miterlimit="10"></path></g><g transform="translate(-9,-9) scale(1,1)"><path fill="none" stroke="#000000" d="M 128.32341987992777 66.19145030018058 L 122.80854969981942 53.32341987992777" stroke-miterlimit="10"></path></g><g transform="translate(-9,-9) scale(1,1)"><path fill="none" stroke="#000000" d="M 259 89 Q 259 75 216 57" stroke-miterlimit="10"></path></g><g transform="translate(-9,-9) scale(1,1)"><path fill="#FFFFFF" stroke="none" d="M 215.45708691810916 59.70296661688292 C 215.45708691810916 55.836973016882915 218.59109331810916 52.70296661688291 222.45708691810916 52.70296661688291 C 226.32308051810915 52.70296661688291 229.45708691810916 55.836973016882915 229.45708691810916 59.70296661688292 C 229.45708691810916 63.56896021688292 226.32308051810915 66.70296661688292 222.45708691810916 66.70296661688292 C 218.59109331810916 66.70296661688292 215.45708691810916 63.56896021688292 215.45708691810916 59.70296661688292 Z"></path></g><g transform="translate(-9,-9) scale(1,1)"><path fill="none" stroke="#000000" d="M 215.45708691810916 59.70296661688292 C 215.45708691810916 55.836973016882915 218.59109331810916 52.70296661688291 222.45708691810916 52.70296661688291 C 226.32308051810915 52.70296661688291 229.45708691810916 55.836973016882915 229.45708691810916 59.70296661688292 C 229.45708691810916 63.56896021688292 226.32308051810915 66.70296661688292 222.45708691810916 66.70296661688292 C 218.59109331810916 66.70296661688292 215.45708691810916 63.56896021688292 215.45708691810916 59.70296661688292 Z" stroke-miterlimit="10"></path></g><g transform="translate(-9,-9) scale(1,1)"><path fill="none" stroke="#000000" d="M 228.91417383621834 62.405933233765815 L 216 57" stroke-miterlimit="10"></path></g><g transform="translate(-9,-9) scale(1,1)"><path fill="none" stroke="#000000" d="M 225.16005353499207 53.24587969877374 L 219.75412030122624 66.16005353499207" stroke-miterlimit="10"></path></g><g transform="translate(-9,-9) scale(1,1)"><path fill="none" stroke="#000000" d="M 385 89 Q 385 75 385 60" stroke-miterlimit="10"></path></g><g transform="translate(-9,-9) scale(1,1)"><path fill="#FFFFFF" stroke="none" d="M 378 67 C 378 63.1340064 381.1340064 60 385 60 C 388.8659936 60 392 63.1340064 392 67 C 392 70.8659936 388.8659936 74 385 74 C 381.1340064 74 378 70.8659936 378 67 Z"></path></g><g transform="translate(-9,-9) scale(1,1)"><path fill="none" stroke="#000000" d="M 378 67 C 378 63.1340064 381.1340064 60 385 60 C 388.8659936 60 392 63.1340064 392 67 C 392 70.8659936 388.8659936 74 385 74 C 381.1340064 74 378 70.8659936 378 67 Z" stroke-miterlimit="10"></path></g><g transform="translate(-9,-9) scale(1,1)"><path fill="none" stroke="#000000" d="M 385 74 L 385 60" stroke-miterlimit="10"></path></g><g transform="translate(-9,-9) scale(1,1)"><path fill="none" stroke="#000000" d="M 392 67 L 378 67" stroke-miterlimit="10"></path></g><g transform="translate(-9,-9) scale(1,1)"><path fill="none" stroke="#000000" d="M 385 159 Q 385 145 385 130" stroke-miterlimit="10"></path></g><g transform="translate(-9,-9) scale(1,1)"><path fill="#FFFFFF" stroke="none" d="M 378 137 C 378 133.1340064 381.1340064 130 385 130 C 388.8659936 130 392 133.1340064 392 137 C 392 140.8659936 388.8659936 144 385 144 C 381.1340064 144 378 140.8659936 378 137 Z"></path></g><g transform="translate(-9,-9) scale(1,1)"><path fill="none" stroke="#000000" d="M 378 137 C 378 133.1340064 381.1340064 130 385 130 C 388.8659936 130 392 133.1340064 392 137 C 392 140.8659936 388.8659936 144 385 144 C 381.1340064 144 378 140.8659936 378 137 Z" stroke-miterlimit="10"></path></g><g transform="translate(-9,-9) scale(1,1)"><path fill="none" stroke="#000000" d="M 385 144 L 385 130" stroke-miterlimit="10"></path></g><g transform="translate(-9,-9) scale(1,1)"><path fill="none" stroke="#000000" d="M 392 137 L 378 137" stroke-miterlimit="10"></path></g></g></svg>