<svg version="1.1" xmlns="http://www.w3.org/2000/svg" xmlns:xlink="http://www.w3.org/1999/xlink" width="372" height="242"><defs></defs><g><g transform="translate(-9,-9) scale(1,1)"><rect fill="#C0C0C0" stroke="none" x="353" y="27" width="165" height="39" opacity="0.2"></rect></g><g transform="translate(-9,-9) scale(1,1)"><rect fill="#ffffff" stroke="none" x="346" y="20" width="165" height="39"></rect></g><g transform="translate(-9,-9) scale(1,1)"><path fill="none" stroke="#000000" d="M 346 20 L 511 20 L 511 59 L 346 59 L 346 20 Z Z" stroke-miterlimit="10"></path></g><g transform="translate(-9,-9) scale(1,1)"><g><path fill="none" stroke="none"></path><text fill="#000000" stroke="none" font-family="Arial" font-size="13px" font-style="normal" font-weight="bold" text-decoration="none" x="428.5" y="39.5"></text></g></g><g transform="translate(-9,-9) scale(1,1)"><g><path fill="none" stroke="none"></path><text fill="#000000" stroke="none" font-family="Arial" font-size="13px" font-style="normal" font-weight="normal" text-decoration="none" x="350.5" y="54.5">(from smartLightsFrontend)</text></g></g><g transform="translate(-9,-9) scale(1,1)"><rect fill="#C0C0C0" stroke="none" x="353" y="177" width="239" height="39" opacity="0.2"></rect></g><g transform="translate(-9,-9) scale(1,1)"><rect fill="#ffffff" stroke="none" x="346" y="170" width="239" height="39"></rect></g><g transform="translate(-9,-9) scale(1,1)"><path fill="none" stroke="#000000" d="M 346 170 L 585 170 L 585 209 L 346 209 L 346 170 Z Z" stroke-miterlimit="10"></path></g><g transform="translate(-9,-9) scale(1,1)"><g><path fill="none" stroke="none"></path><text fill="#000000" stroke="none" font-family="Arial" font-size="13px" font-style="normal" font-weight="bold" text-decoration="none" x="435" y="189.5">CAppMngr</text></g></g><g transform="translate(-9,-9) scale(1,1)"><g><path fill="none" stroke="none"></path><text fill="#000000" stroke="none" font-family="Arial" font-size="13px" font-style="normal" font-weight="normal" text-decoration="none" x="350.5" y="204.5">(from IApplicationStateInterfaceListener)</text></g></g><g transform="translate(-9,-9) scale(1,1)"><rect fill="#C0C0C0" stroke="none" x="353" y="227" width="165" height="39" opacity="0.2"></rect></g><g transform="translate(-9,-9) scale(1,1)"><rect fill="#ffffff" stroke="none" x="346" y="220" width="165" height="39"></rect></g><g transform="translate(-9,-9) scale(1,1)"><path fill="none" stroke="#000000" d="M 346 220 L 511 220 L 511 259 L 346 259 L 346 220 Z Z" stroke-miterlimit="10"></path></g><g transform="translate(-9,-9) scale(1,1)"><g><path fill="none" stroke="none"></path><text fill="#000000" stroke="none" font-family="Arial" font-size="13px" font-style="normal" font-weight="bold" text-decoration="none" x="428.5" y="239.5"></text></g></g><g transform="translate(-9,-9) scale(1,1)"><g><path fill="none" stroke="none"></path><text fill="#000000" stroke="none" font-family="Arial" font-size="13px" font-style="normal" font-weight="normal" text-decoration="none" x="350.5" y="254.5">(from smartLightsBackend)</text></g></g><g transform="translate(-9,-9) scale(1,1)"><rect fill="#C0C0C0" stroke="none" x="378" y="77" width="115" height="39" opacity="0.2"></rect></g><g transform="translate(-9,-9) scale(1,1)"><rect fill="#ffffff" stroke="none" x="371" y="70" width="115" height="39"></rect></g><g transform="translate(-9,-9) scale(1,1)"><path fill="none" stroke="#000000" d="M 371 70 L 486 70 L 486 109 L 371 109 L 371 70 Z Z" stroke-miterlimit="10"></path></g><g transform="translate(-9,-9) scale(1,1)"><g><path fill="none" stroke="none"></path><text fill="#000000" stroke="none" font-family="Arial" font-size="13px" font-style="normal" font-weight="bold" text-decoration="none" x="428.5" y="89.5"></text></g></g><g transform="translate(-9,-9) scale(1,1)"><g><path fill="none" stroke="none"></path><text fill="#000000" stroke="none" font-family="Arial" font-size="13px" font-style="normal" font-weight="normal" text-decoration="none" x="375.5" y="104.5">(from CppReverse)</text></g></g><g transform="translate(-9,-9) scale(1,1)"><rect fill="#C0C0C0" stroke="none" x="378" y="127" width="115" height="39" opacity="0.2"></rect></g><g transform="translate(-9,-9) scale(1,1)"><rect fill="#ffffff" stroke="none" x="371" y="120" width="115" height="39"></rect></g><g transform="translate(-9,-9) scale(1,1)"><path fill="none" stroke="#000000" d="M 371 120 L 486 120 L 486 159 L 371 159 L 371 120 Z Z" stroke-miterlimit="10"></path></g><g transform="translate(-9,-9) scale(1,1)"><g><path fill="none" stroke="none"></path><text fill="#000000" stroke="none" font-family="Arial" font-size="13px" font-style="normal" font-weight="bold" text-decoration="none" x="428.5" y="139.5"></text></g></g><g transform="translate(-9,-9) scale(1,1)"><g><path fill="none" stroke="none"></path><text fill="#000000" stroke="none" font-family="Arial" font-size="13px" font-style="normal" font-weight="normal" text-decoration="none" x="375.5" y="154.5">(from CppReverse)</text></g></g><g transform="translate(-9,-9) scale(1,1)"><rect fill="#C0C0C0" stroke="none" x="68.5" y="27" width="142" height="39" opacity="0.2"></rect></g><g transform="translate(-9,-9) scale(1,1)"><rect fill="#ffffff" stroke="none" x="61.5" y="20" width="142" height="39"></rect></g><g transform="translate(-9,-9) scale(1,1)"><path fill="none" stroke="#000000" d="M 61.5 20 L 203.5 20 L 203.5 59 L 61.5 59 L 61.5 20 Z Z" stroke-miterlimit="10"></path></g><g transform="translate(-9,-9) scale(1,1)"><g><path fill="none" stroke="none"></path><text fill="#000000" stroke="none" font-family="Arial" font-size="13px" font-style="normal" font-weight="bold" text-decoration="none" x="72.5" y="39.5">IsmartLightsInterface</text></g></g><g transform="translate(-9,-9) scale(1,1)"><g><path fill="none" stroke="none"></path><text fill="#000000" stroke="none" font-family="Arial" font-size="13px" font-style="normal" font-weight="normal" text-decoration="none" x="79.5" y="54.5">(from CppReverse)</text></g></g><g transform="translate(-9,-9) scale(1,1)"><path fill="none" stroke="#000000" d="M 345 40 Q 296 40 205 39" stroke-miterlimit="10"></path></g><g transform="translate(-9,-9) scale(1,1)"><path fill="#FFFFFF" stroke="none" d="M 225.41663388658245 30.80481478298058 L 205 39 L 225.23161131023969 47.64186923017132"></path></g><g transform="translate(-9,-9) scale(1,1)"><path fill="none" stroke="#000000" d="M 225.41663388658245 30.80481478298058 L 205 39 L 225.23161131023969 47.64186923017132 L 225.41663388658245 30.80481478298058" stroke-miterlimit="10"></path></g><g transform="translate(-9,-9) scale(1,1)"><rect fill="#C0C0C0" stroke="none" x="82" y="77" width="115" height="39" opacity="0.2"></rect></g><g transform="translate(-9,-9) scale(1,1)"><rect fill="#ffffff" stroke="none" x="75" y="70" width="115" height="39"></rect></g><g transform="translate(-9,-9) scale(1,1)"><path fill="none" stroke="#000000" d="M 75 70 L 190 70 L 190 109 L 75 109 L 75 70 Z Z" stroke-miterlimit="10"></path></g><g transform="translate(-9,-9) scale(1,1)"><g><path fill="none" stroke="none"></path><text fill="#000000" stroke="none" font-family="Arial" font-size="13px" font-style="normal" font-weight="bold" text-decoration="none" x="108.5" y="89.5">QObject</text></g></g><g transform="translate(-9,-9) scale(1,1)"><g><path fill="none" stroke="none"></path><text fill="#000000" stroke="none" font-family="Arial" font-size="13px" font-style="normal" font-weight="normal" text-decoration="none" x="79.5" y="104.5">(from CppReverse)</text></g></g><g transform="translate(-9,-9) scale(1,1)"><path fill="none" stroke="#000000" d="M 370 89 Q 296 90 191 89" stroke-miterlimit="10"></path></g><g transform="translate(-9,-9) scale(1,1)"><path fill="#FFFFFF" stroke="none" d="M 211.40460564788083 80.77491225855496 L 191 89 L 211.244250338884 97.61221970322374"></path></g><g transform="translate(-9,-9) scale(1,1)"><path fill="none" stroke="#000000" d="M 211.40460564788083 80.77491225855496 L 191 89 L 211.244250338884 97.61221970322374 L 211.40460564788083 80.77491225855496" stroke-miterlimit="10"></path></g><g transform="translate(-9,-9) scale(1,1)"><rect fill="#C0C0C0" stroke="none" x="66.5" y="127" width="146" height="39" opacity="0.2"></rect></g><g transform="translate(-9,-9) scale(1,1)"><rect fill="#ffffff" stroke="none" x="59.5" y="120" width="146" height="39"></rect></g><g transform="translate(-9,-9) scale(1,1)"><path fill="none" stroke="#000000" d="M 59.5 120 L 205.5 120 L 205.5 159 L 59.5 159 L 59.5 120 Z Z" stroke-miterlimit="10"></path></g><g transform="translate(-9,-9) scale(1,1)"><g><path fill="none" stroke="none"></path><text fill="#000000" stroke="none" font-family="Arial" font-size="13px" font-style="normal" font-weight="bold" text-decoration="none" x="72" y="139.5">ILightSourceInterface</text></g></g><g transform="translate(-9,-9) scale(1,1)"><g><path fill="none" stroke="none"></path><text fill="#000000" stroke="none" font-family="Arial" font-size="13px" font-style="normal" font-weight="normal" text-decoration="none" x="79.5" y="154.5">(from CppReverse)</text></g></g><g transform="translate(-9,-9) scale(1,1)"><path fill="none" stroke="#000000" d="M 370 139 Q 296 140 207 139" stroke-miterlimit="10"></path></g><g transform="translate(-9,-9) scale(1,1)"><path fill="#FFFFFF" stroke="none" d="M 227.41865676668002 130.80985617681154 L 207 139 L 227.2294768987097 147.64686442617037"></path></g><g transform="translate(-9,-9) scale(1,1)"><path fill="none" stroke="#000000" d="M 227.41865676668002 130.80985617681154 L 207 139 L 227.2294768987097 147.64686442617037 L 227.41865676668002 130.80985617681154" stroke-miterlimit="10"></path></g><g transform="translate(-9,-9) scale(1,1)"><rect fill="#C0C0C0" stroke="none" x="27" y="177" width="225" height="39" opacity="0.2"></rect></g><g transform="translate(-9,-9) scale(1,1)"><rect fill="#ffffff" stroke="none" x="20" y="170" width="225" height="39"></rect></g><g transform="translate(-9,-9) scale(1,1)"><path fill="none" stroke="#000000" d="M 20 170 L 245 170 L 245 209 L 20 209 L 20 170 Z Z" stroke-miterlimit="10"></path></g><g transform="translate(-9,-9) scale(1,1)"><g><path fill="none" stroke="none"></path><text fill="#000000" stroke="none" font-family="Arial" font-size="13px" font-style="normal" font-weight="bold" text-decoration="none" x="36" y="189.5">IApplicationStateInterfaceListener</text></g></g><g transform="translate(-9,-9) scale(1,1)"><g><path fill="none" stroke="none"></path><text fill="#000000" stroke="none" font-family="Arial" font-size="13px" font-style="normal" font-weight="normal" text-decoration="none" x="79.5" y="204.5">(from CppReverse)</text></g></g><g transform="translate(-9,-9) scale(1,1)"><path fill="none" stroke="#000000" d="M 345 190 Q 296 190 246 190" stroke-miterlimit="10"></path></g><g transform="translate(-9,-9) scale(1,1)"><path fill="#FFFFFF" stroke="none" d="M 266.3253497152483 181.58096448796803 L 246 190 L 266.3253497152483 198.41903551203197"></path></g><g transform="translate(-9,-9) scale(1,1)"><path fill="none" stroke="#000000" d="M 266.3253497152483 181.58096448796803 L 246 190 L 266.3253497152483 198.41903551203197 L 266.3253497152483 181.58096448796803" stroke-miterlimit="10"></path></g><g transform="translate(-9,-9) scale(1,1)"><rect fill="#C0C0C0" stroke="none" x="54.5" y="227" width="170" height="39" opacity="0.2"></rect></g><g transform="translate(-9,-9) scale(1,1)"><rect fill="#ffffff" stroke="none" x="47.5" y="220" width="170" height="39"></rect></g><g transform="translate(-9,-9) scale(1,1)"><path fill="none" stroke="#000000" d="M 47.5 220 L 217.5 220 L 217.5 259 L 47.5 259 L 47.5 220 Z Z" stroke-miterlimit="10"></path></g><g transform="translate(-9,-9) scale(1,1)"><g><path fill="none" stroke="none"></path><text fill="#000000" stroke="none" font-family="Arial" font-size="13px" font-style="normal" font-weight="bold" text-decoration="none" x="60" y="239.5">ISensorCommonInterface</text></g></g><g transform="translate(-9,-9) scale(1,1)"><g><path fill="none" stroke="none"></path><text fill="#000000" stroke="none" font-family="Arial" font-size="13px" font-style="normal" font-weight="normal" text-decoration="none" x="79.5" y="254.5">(from CppReverse)</text></g></g><g transform="translate(-9,-9) scale(1,1)"><path fill="none" stroke="#000000" d="M 345 240 Q 296 240 219 240" stroke-miterlimit="10"></path></g><g transform="translate(-9,-9) scale(1,1)"><path fill="#FFFFFF" stroke="none" d="M 239.3253497152483 231.58096448796803 L 219 240 L 239.3253497152483 248.41903551203197"></path></g><g transform="translate(-9,-9) scale(1,1)"><path fill="none" stroke="#000000" d="M 239.3253497152483 231.58096448796803 L 219 240 L 239.3253497152483 248.41903551203197 L 239.3253497152483 231.58096448796803" stroke-miterlimit="10"></path></g></g></svg>